<?xml version="1.0" encoding="UTF-8"?>
<!DOCTYPE svg PUBLIC "-//W3C//DTD SVG 1.1//EN" "http://www.w3.org/Graphics/SVG/1.1/DTD/svg11.dtd">
<!-- Creator: CorelDRAW -->
<svg xmlns="http://www.w3.org/2000/svg" xml:space="preserve" width="2003px" height="1813px" style="shape-rendering:geometricPrecision; text-rendering:geometricPrecision; image-rendering:optimizeQuality; fill-rule:evenodd; clip-rule:evenodd"
viewBox="0 0 2094.98 1896.27"
 xmlns:xlink="http://www.w3.org/1999/xlink">
 <defs>
  <style type="text/css">
   <![CDATA[
    .fil0 {fill:#F8C300}
    .fil1 {fill:black}
   ]]>
  </style>
 </defs>
 <g id="Ebene_x0020_1">
  <metadata id="CorelCorpID_0Corel-Layer"/>
  <polygon class="fil0" points="793.198,0 793.198,1554.4 1012.12,1554.4 1012.12,825.198 1013.81,772.99 1017.18,747.728 1022.23,724.154 1030.65,700.579 1042.44,680.37 1057.59,660.163 1077.8,643.319 1103.06,628.161 1126.65,619.745 1145.17,616.371 1162.01,614.692 1183.9,616.371 1205.79,623.11 1226,631.527 1244.52,643.319 1264.73,660.163 1278.21,676.997 1288.32,697.206 1295.05,719.102 1301.79,764.571 1301.79,1551.03 1513.98,1551.03 1513.98,708.997 1507.24,661.841 1498.82,626.476 1490.4,597.849 1478.61,574.274 1460.09,545.64 1436.51,520.378 1407.88,498.491 1374.2,481.648 1340.52,466.491 1303.47,456.386 1268.11,449.648 1231.06,447.968 1195.69,449.648 1165.38,454.7 1136.75,464.804 1108.11,476.595 1082.85,491.752 1057.59,510.275 1005.39,554.065 1005.39,0 "/>
  <polygon class="fil1" points="570.901,1756.49 503.535,1685.76 498.482,1690.81 517.006,1714.39 518.691,1724.49 517.006,1732.91 496.797,1754.81 486.692,1763.22 412.595,1685.76 436.17,1663.87 458.066,1647.02 466.483,1641.97 478.275,1640.29 491.744,1640.29 505.222,1645.35 530.484,1660.5 533.849,1657.13 485.013,1609.98 357.021,1727.86 362.074,1731.23 385.647,1711.02 538.9,1874.37 517.006,1894.58 522.057,1896.27 594.476,1832.28 589.423,1827.22 565.849,1849.11 491.744,1769.96 501.848,1759.86 517.006,1746.39 530.484,1741.34 545.64,1744.7 565.849,1761.55 "/>
  <polygon class="fil1" points="769.617,1572.93 778.042,1589.77 786.46,1604.93 789.826,1621.76 789.826,1635.24 784.773,1647.02 762.886,1668.92 734.25,1695.87 579.318,1532.51 601.214,1513.99 596.162,1508.94 523.744,1574.61 528.796,1579.67 550.692,1559.46 705.624,1721.13 682.05,1743.02 687.102,1748.07 818.46,1626.81 772.99,1569.56 "/>
  <polygon class="fil1" points="941.392,1414.62 951.496,1436.52 959.921,1460.09 961.601,1475.25 958.235,1487.04 948.13,1498.83 932.974,1512.3 904.347,1539.25 828.564,1460.09 853.825,1439.88 867.295,1436.52 882.452,1441.57 900.974,1458.41 904.347,1455.04 836.982,1382.63 831.929,1387.68 845.4,1401.15 850.451,1412.94 850.451,1421.36 847.086,1429.78 831.929,1446.62 823.512,1455.04 749.408,1375.89 769.617,1359.05 786.46,1343.89 799.929,1335.47 815.086,1330.42 831.929,1332.11 850.451,1340.53 865.609,1348.94 868.982,1347.26 821.825,1301.79 697.206,1416.31 700.572,1421.36 722.468,1401.15 877.4,1564.51 855.504,1584.72 860.556,1589.77 990.235,1470.2 944.765,1411.26 "/>
  <polygon class="fil1" points="1042.44,1109.81 1039.07,1103.07 991.914,1145.17 996.966,1151.91 1017.18,1131.7 1128.32,1247.9 1092.96,1239.48 1059.28,1231.06 932.974,1199.06 877.4,1249.58 882.452,1256.32 904.347,1234.43 1059.28,1397.79 1035.71,1417.99 1040.76,1424.73 1092.96,1375.89 1087.91,1370.84 1066.02,1391.05 916.13,1234.43 953.183,1244.53 1177.17,1298.42 1182.22,1293.37 1023.91,1126.65 "/>
  <polygon class="fil1" points="1178.85,970.026 1178.85,988.557 1160.32,993.608 1148.53,998.661 1136.75,1008.77 1126.65,1018.87 1121.59,1032.34 1116.54,1044.13 1116.54,1057.6 1123.27,1082.86 1136.75,1104.76 1148.53,1114.86 1160.32,1121.59 1173.79,1124.97 1187.27,1124.97 1205.79,1118.23 1252.95,1094.65 1269.79,1089.6 1286.63,1091.28 1296.73,1096.33 1305.15,1104.76 1316.94,1121.59 1320.31,1140.12 1316.94,1158.65 1303.47,1177.17 1284.94,1187.27 1269.79,1192.32 1246.21,1192.32 1224.32,1183.91 1207.48,1172.11 1200.74,1178.85 1251.26,1231.06 1258,1224.32 1254.63,1204.12 1269.79,1202.43 1284.94,1199.06 1298.42,1192.32 1308.52,1183.91 1320.31,1170.44 1327.05,1156.96 1330.41,1143.49 1330.41,1130.02 1328.73,1114.86 1323.68,1101.38 1305.15,1077.81 1291.68,1064.34 1278.21,1057.6 1264.73,1054.23 1252.95,1052.55 1241.16,1054.23 1231.06,1057.6 1212.53,1067.71 1200.74,1072.76 1182.22,1082.86 1167.06,1087.91 1151.91,1086.23 1138.43,1077.81 1131.7,1069.39 1128.32,1060.97 1126.65,1044.13 1131.7,1027.29 1141.8,1015.5 1158.64,1005.39 1168.74,1002.03 1178.85,1000.34 1192.32,1002.03 1202.43,1005.39 1219.26,1017.18 1226,1010.44 1182.22,966.661 "/>
  <polygon class="fil1" points="1431.46,1020.55 1431.46,1066.02 1466.82,1034.03 1498.82,1002.03 1510.61,985.183 1515.67,966.661 1517.34,953.19 1515.67,939.712 1510.61,927.93 1502.19,916.138 1492.08,906.034 1480.3,900.981 1468.51,899.296 1455.04,899.296 1443.25,900.981 1431.46,904.347 1431.46,922.877 1436.51,922.877 1448.3,926.243 1458.4,934.661 1470.2,944.765 1478.61,953.19 1487.03,968.348 1492.08,983.504 1487.03,1002.03 1460.09,1030.65 1449.99,1040.76 "/>
  <polygon class="fil1" points="1431.46,922.877 1431.46,904.347 1429.78,904.347 1406.2,919.503 1417.99,902.669 1426.41,880.773 1426.41,858.878 1421.35,847.094 1414.62,836.989 1402.83,828.564 1389.36,823.511 1389.36,868.982 1397.78,879.087 1402.83,892.565 1404.52,906.034 1399.47,919.503 1389.36,931.295 1389.36,943.086 1404.52,931.295 1414.62,924.556 1423.04,922.877 "/>
  <polygon class="fil1" points="1431.46,1066.02 1431.46,1020.55 1389.36,976.765 1389.36,1027.29 1424.73,1064.34 1402.83,1084.55 1406.2,1089.6 "/>
  <polygon class="fil1" points="1389.36,868.982 1389.36,823.511 1387.67,823.511 1369.15,821.833 1359.05,825.198 1350.62,828.564 1350.62,845.407 1352.31,845.407 1362.41,847.094 1372.52,853.825 1385.99,865.616 "/>
  <polygon class="fil1" points="1389.36,943.086 1389.36,931.295 1374.2,946.452 1367.47,951.504 1350.62,936.347 1350.62,988.557 1389.36,1027.29 1389.36,976.765 1372.52,958.243 1375.88,953.19 "/>
  <polygon class="fil1" points="1350.62,845.407 1350.62,828.564 1347.26,828.564 1320.31,847.094 1288.32,875.721 1241.16,917.825 1246.21,922.877 1269.79,900.981 1350.62,988.557 1350.62,936.347 1296.73,877.407 1303.47,870.669 1323.68,853.825 1333.79,848.773 1342.2,845.407 "/>
  <polygon class="fil1" points="1586.4,601.214 1540.93,643.319 1545.98,648.37 1566.19,629.849 1670.6,739.311 1689.12,759.52 1695.86,771.311 1699.23,784.78 1699.23,804.989 1692.49,818.46 1682.39,831.938 1670.6,840.355 1657.13,847.094 1633.55,847.094 1621.76,843.72 1611.66,836.989 1593.13,820.146 1485.35,703.945 1507.24,683.736 1502.19,678.684 1429.78,744.363 1434.83,749.415 1458.4,729.206 1562.82,840.355 1584.71,860.564 1599.87,867.303 1616.71,870.669 1630.18,870.669 1645.34,865.616 1662.18,857.198 1680.7,843.72 1699.23,821.833 1707.65,803.302 1707.65,781.415 1702.6,766.259 1694.17,752.781 1673.96,729.206 1572.92,623.11 1593.13,606.267 "/>
  <polygon class="fil1" points="1743.02,575.953 1743.02,631.527 1815.43,705.632 1791.85,725.841 1796.9,730.893 1869.32,665.214 1864.27,660.163 1842.37,680.37 1763.22,596.162 1783.43,579.327 1798.59,570.901 1805.32,567.535 1812.06,567.535 1823.85,570.901 1833.96,577.64 1842.37,584.378 1852.48,594.483 1874.37,613.005 1886.16,619.745 1901.31,621.423 1919.84,618.058 1933.31,607.953 1941.73,599.536 1948.47,587.744 1941.73,584.378 1935,596.162 1929.95,599.536 1923.21,599.536 1914.79,596.162 1901.31,584.378 1884.48,567.535 1872.69,559.118 1857.53,550.692 1847.43,549.013 1837.32,549.013 1820.48,552.378 1807.01,557.431 1793.54,565.849 1810.37,542.274 1820.48,517.013 1820.48,505.222 1818.8,495.117 1815.43,483.335 1798.59,466.491 1788.49,461.439 1778.38,458.073 1764.9,458.073 1746.38,463.126 1743.02,466.491 1743.02,485.013 1748.07,485.013 1756.49,488.386 1764.9,493.439 1778.38,505.222 1791.85,523.753 1795.22,533.856 1795.22,545.64 1791.85,555.744 1783.43,565.849 1758.17,591.109 "/>
  <polygon class="fil1" points="1743.02,485.013 1743.02,466.491 1731.22,471.543 1700.91,496.804 1631.87,559.118 1636.92,564.169 1660.49,543.962 1743.02,631.527 1743.02,575.953 1689.12,518.7 1697.55,510.275 1721.12,491.752 1734.59,485.013 "/>
  <polygon class="fil1" points="2086.57,353.656 2012.46,421.021 2019.2,426.073 2044.46,402.499 2062.98,422.708 2069.72,434.491 2073.09,446.282 2074.78,461.439 2069.72,473.23 2059.62,485.013 2049.51,493.439 2037.72,496.804 2017.51,496.804 2000.68,488.386 1990.57,481.648 1941.73,436.177 1911.42,400.812 1897.95,382.29 1889.53,365.447 1887.84,343.551 1892.9,328.394 1904.69,313.238 1919.84,303.133 1935,299.767 1950.16,298.081 1963.63,301.454 1977.1,306.507 1987.2,311.559 1998.99,318.29 2004.04,314.925 1953.52,264.402 1950.16,267.767 1951.84,286.298 1926.57,291.35 1913.1,298.081 1901.31,308.185 1884.48,326.716 1876.05,348.603 1871,368.812 1871,390.708 1876.05,414.282 1884.48,436.177 1909.74,468.177 1938.37,493.439 1958.57,503.544 1980.47,510.275 2014.15,511.96 2041.1,506.909 2057.93,496.804 2068.04,488.386 2078.14,476.595 2086.57,464.804 2094.98,441.23 2093.3,421.021 2093.3,404.177 2084.88,385.656 2076.46,373.865 2091.62,358.707 "/>
  <polygon class="fil1" points="0,491.752 0,1551.03 223.977,1551.03 223.977,1087.91 525.431,1087.91 525.431,921.19 223.977,921.19 223.977,658.476 533.849,658.476 533.849,491.752 "/>
 </g>
</svg>
